<?xml version="1.0" encoding="utf-8"?>
<!-- Generator: Adobe Illustrator 16.0.0, SVG Export Plug-In . SVG Version: 6.00 Build 0)  -->
<svg version="1.2" baseProfile="tiny" id="Calque_1"
	 xmlns="http://www.w3.org/2000/svg" xmlns:xlink="http://www.w3.org/1999/xlink" x="0px" y="0px" width="383.503px"
	 height="383.504px" viewBox="0 0 383.503 383.504" xml:space="preserve">
<g>
	<g>
		<path fill="#51B47E" d="M182.022,254.398V129.105h35.06c14.582,0,24.707,1.206,30.371,3.613
			c12.109,5.015,18.164,13.867,18.164,26.563c0,8.726-2.104,16.001-6.307,21.826c-4.205,5.827-11.234,11.247-21.086,16.26
			l43.258,57.031h-23.287l-39.551-52.148h-17.383v52.148H182.022z M201.261,187.797h10.156c10.352,0,18.555-2.282,24.609-6.851
			c6.055-4.567,9.082-10.733,9.082-18.499c0-7.241-2.281-12.199-6.836-14.876c-4.559-2.674-12.957-4.013-25.195-4.013h-11.816
			V187.797z">
        
        <animateTransform attributeName="transform" attributeType="XML" type="translateX" from="200" to="0" dur="2s" calcMode="spline" values="200; 0" keyTimes="0;1" keySplines=".47 0 0 1" fill="freeze" />
                    </path>
        
	</g>
	<g>
		<path fill="#51B47E" d="M201.482,129.105v125.293h-35.059c-14.583,0-24.707-1.205-30.371-3.613
			c-12.109-5.014-18.164-13.867-18.164-26.563c0-8.725,2.103-16,6.307-21.826c4.205-5.827,11.233-11.247,21.084-16.26
			l-43.257-57.031h23.288l39.551,52.148h17.383v-52.148H201.482z M182.244,195.707h-10.156c-10.352,0-18.555,2.283-24.609,6.852
			c-6.055,4.566-9.082,10.732-9.082,18.498c0,7.242,2.279,12.199,6.836,14.875c4.558,2.676,12.956,4.014,25.195,4.014h11.816
			V195.707z">
            
            <animateTransform attributeName="transform" attributeType="XML" type="translateX" from="-200" to="0" dur="2s" calcMode="spline" values="-200; 0" keyTimes="0;1" keySplines=".47 0 0 1" fill="freeze" />
            
        </path>
	</g>
</g>
<circle fill="none" stroke="#51B47E" stroke-width="15" stroke-miterlimit="10" cx="191.751" cy="191.752" r="184.252"/>
</svg>
