<?xml version="1.0" encoding="utf-8"?>
<!-- Generator: Adobe Illustrator 19.1.1, SVG Export Plug-In . SVG Version: 6.00 Build 0)  -->
<svg version="1.1" id="Calque_1" xmlns="http://www.w3.org/2000/svg" xmlns:xlink="http://www.w3.org/1999/xlink" x="0px" y="0px"
	 viewBox="0 0 1417.3 1417.3" style="enable-background:new 0 0 1417.3 1417.3;" xml:space="preserve">
<style type="text/css">
	.st0{fill:#FFFFFF;}
	.st1{fill:none;stroke:#FFFFFF;stroke-width:40;stroke-miterlimit:10;}
</style>
<g>
	<g>
		<path class="st0" d="M678.7,901.7v-386h108c44.9,0,76.1,3.7,93.6,11.1c37.3,15.4,56,42.7,56,81.8c0,26.9-6.5,49.3-19.4,67.2
			c-13,18-34.6,34.6-65,50.1l133.3,175.7h-71.7L791.5,741H738v160.7H678.7z M738,696.5h31.3c31.9,0,57.2-7,75.8-21.1
			c18.7-14.1,28-33.1,28-57c0-22.3-7-37.6-21.1-45.8c-14-8.2-39.9-12.4-77.6-12.4H738V696.5z"/>
	</g>
	<g>
		<path class="st0" d="M738.6,515.7v386h-108c-44.9,0-76.1-3.7-93.6-11.1c-37.3-15.4-56-42.7-56-81.8c0-26.9,6.5-49.3,19.4-67.2
			c13-18,34.6-34.6,65-50.1L432.2,515.7H504l121.8,160.7h53.6V515.7H738.6z M679.4,720.8h-31.3c-31.9,0-57.2,7-75.8,21.1
			c-18.7,14.1-28,33.1-28,57c0,22.3,7,37.6,21.1,45.8c14,8.2,39.9,12.4,77.6,12.4h36.4V720.8z"/>
	</g>
</g>
<circle class="st1" cx="708.7" cy="708.7" r="567.6"/>
</svg>
